<svg xmlns="http://www.w3.org/2000/svg" xmlns:xlink="http://www.w3.org/1999/xlink" width="40" zoomAndPan="magnify" viewBox="0 0 30 30.000001" height="40" preserveAspectRatio="xMidYMid meet" version="1.0"><defs><clipPath id="2d6a85b10b"><path d="M 0.484375 0 L 29.515625 0 L 29.515625 29.03125 L 0.484375 29.03125 Z M 0.484375 0 " clip-rule="nonzero"/></clipPath></defs><g clip-path="url(#2d6a85b10b)"><path fill="none" d="M 30.171875 20.199219 C 30.171875 23.246094 30.171875 24.769531 29.652344 26.410156 C 29 28.199219 27.589844 29.609375 25.800781 30.261719 C 24.160156 30.78125 22.636719 30.78125 19.589844 30.78125 L 10.398438 30.78125 C 7.351562 30.78125 5.832031 30.78125 4.191406 30.261719 C 2.398438 29.609375 0.988281 28.199219 0.335938 26.410156 C -0.183594 24.769531 -0.183594 23.246094 -0.183594 20.199219 L -0.183594 11.007812 C -0.183594 7.960938 -0.183594 6.4375 0.335938 4.796875 C 0.988281 3.007812 2.398438 1.59375 4.191406 0.945312 C 5.832031 0.425781 7.351562 0.425781 10.398438 0.425781 L 19.589844 0.425781 C 22.636719 0.425781 24.160156 0.425781 25.800781 0.945312 C 27.589844 1.59375 29 3.007812 29.652344 4.796875 C 30.171875 6.4375 30.171875 7.960938 30.171875 11.007812 Z M 30.171875 20.199219 " fill-opacity="1" fill-rule="nonzero"/></g><path fill="#000000" d="M 27.179688 13.828125 L 27.179688 26.074219 C 27.179688 26.535156 26.804688 26.90625 26.34375 26.90625 L 16.335938 26.90625 C 15.875 26.90625 15.5 26.535156 15.5 26.074219 L 15.5 23.792969 C 15.546875 20.996094 15.84375 18.320312 16.460938 17.101562 C 16.835938 16.371094 17.449219 15.96875 18.152344 15.757812 C 19.484375 15.355469 21.820312 15.628906 22.8125 15.582031 C 22.8125 15.582031 25.808594 15.703125 25.808594 14.007812 C 25.808594 12.640625 24.46875 12.75 24.46875 12.75 C 22.992188 12.785156 21.871094 12.6875 21.140625 12.398438 C 19.921875 11.921875 19.878906 11.039062 19.875 10.746094 C 19.816406 7.347656 14.804688 6.941406 10.390625 7.785156 C 5.5625 8.703125 10.441406 15.621094 10.441406 24.855469 L 10.441406 26.089844 C 10.433594 26.542969 10.066406 26.910156 9.613281 26.910156 L 4.65625 26.910156 C 4.195312 26.910156 3.820312 26.535156 3.820312 26.074219 L 3.820312 4.898438 C 3.820312 4.4375 4.195312 4.0625 4.65625 4.0625 L 9.3125 4.0625 C 9.773438 4.0625 10.148438 4.4375 10.148438 4.898438 C 10.148438 5.582031 10.917969 5.960938 11.472656 5.5625 C 13.148438 4.363281 15.300781 3.722656 17.707031 3.722656 C 23.097656 3.722656 27.175781 6.867188 27.175781 13.828125 Z M 18.226562 11.34375 C 18.226562 10.359375 17.429688 9.558594 16.445312 9.558594 C 15.457031 9.558594 14.660156 10.359375 14.660156 11.34375 C 14.660156 12.328125 15.457031 13.128906 16.445312 13.128906 C 17.429688 13.128906 18.226562 12.328125 18.226562 11.34375 Z M 18.226562 11.34375 " fill-opacity="1" fill-rule="nonzero"/></svg>