<svg xmlns="http://www.w3.org/2000/svg" xmlns:xlink="http://www.w3.org/1999/xlink" width="40" zoomAndPan="magnify" viewBox="0 0 30 30.000001" height="40" preserveAspectRatio="xMidYMid meet" version="1.0"><defs><clipPath id="dc8f7a0b57"><path d="M 5.386719 1.707031 L 24.257812 1.707031 L 24.257812 27.109375 L 5.386719 27.109375 Z M 5.386719 1.707031 " clip-rule="nonzero"/></clipPath></defs><g clip-path="url(#dc8f7a0b57)"><path fill="#000000" d="M 8.421875 1.765625 C 6.902344 2.097656 5.757812 3.261719 5.457031 4.777344 C 5.40625 5.046875 5.398438 5.972656 5.410156 14.539062 L 5.417969 24.003906 L 5.519531 24.320312 C 5.980469 25.796875 7.082031 26.800781 8.523438 27.054688 C 8.992188 27.140625 22.507812 27.136719 22.820312 27.054688 C 23.496094 26.878906 24.058594 26.3125 24.207031 25.660156 C 24.277344 25.34375 24.257812 3.328125 24.1875 3.082031 C 24.003906 2.464844 23.523438 1.96875 22.929688 1.78125 C 22.617188 1.683594 8.859375 1.667969 8.421875 1.765625 M 19.03125 6.574219 C 19.105469 6.644531 19.199219 6.804688 19.257812 6.953125 C 19.371094 7.253906 19.476562 7.351562 19.789062 7.472656 C 20.4375 7.71875 20.417969 8.421875 19.757812 8.644531 C 19.503906 8.726562 19.347656 8.894531 19.242188 9.183594 C 18.996094 9.867188 18.335938 9.882812 18.074219 9.214844 C 17.949219 8.890625 17.8125 8.742188 17.546875 8.648438 C 16.886719 8.417969 16.863281 7.714844 17.507812 7.476562 C 17.816406 7.363281 17.925781 7.253906 18.042969 6.960938 C 18.253906 6.429688 18.703125 6.253906 19.03125 6.574219 M 15.132812 10.113281 C 15.34375 10.21875 15.359375 10.253906 15.722656 11.195312 C 16.183594 12.402344 16.027344 12.246094 17.195312 12.660156 C 18.222656 13.023438 18.292969 13.070312 18.371094 13.398438 C 18.464844 13.796875 18.285156 13.941406 17.242188 14.3125 C 16.027344 14.746094 16.183594 14.589844 15.707031 15.839844 C 15.324219 16.847656 15.179688 17.019531 14.769531 16.941406 C 14.496094 16.890625 14.414062 16.761719 14.035156 15.765625 C 13.59375 14.621094 13.703125 14.730469 12.542969 14.320312 C 11.453125 13.9375 11.359375 13.859375 11.410156 13.398438 C 11.445312 13.09375 11.554688 13.023438 12.511719 12.683594 C 13.734375 12.246094 13.578125 12.398438 14.027344 11.234375 C 14.484375 10.046875 14.65625 9.875 15.132812 10.113281 M 22.332031 23.464844 L 22.332031 25.253906 L 15.476562 25.242188 L 8.621094 25.234375 L 8.34375 25.097656 C 6.839844 24.363281 7.023438 22.183594 8.628906 21.738281 C 8.773438 21.695312 10.082031 21.6875 15.570312 21.683594 L 22.332031 21.679688 L 22.332031 23.464844 " fill-opacity="1" fill-rule="evenodd"/></g></svg>