<svg xmlns="http://www.w3.org/2000/svg" xmlns:xlink="http://www.w3.org/1999/xlink" width="40" zoomAndPan="magnify" viewBox="0 0 30 30.000001" height="40" preserveAspectRatio="xMidYMid meet" version="1.0"><path fill="#000000" d="M 22.972656 2.953125 L 8.03125 2.953125 C 6.644531 2.953125 4.585938 3.871094 4.585938 6.398438 L 4.585938 22.488281 C 4.585938 25.015625 6.644531 25.933594 8.03125 25.933594 L 25.269531 25.933594 L 25.269531 23.636719 L 8.046875 23.636719 C 7.515625 23.625 6.882812 23.414062 6.882812 22.488281 C 6.882812 22.371094 6.894531 22.269531 6.910156 22.175781 C 7.039062 21.511719 7.582031 21.351562 8.046875 21.339844 L 25.269531 21.339844 L 25.269531 5.25 C 25.269531 4.945312 25.210938 4.652344 25.09375 4.371094 C 24.980469 4.089844 24.8125 3.839844 24.597656 3.625 C 24.382812 3.410156 24.132812 3.242188 23.851562 3.125 C 23.570312 3.011719 23.277344 2.953125 22.972656 2.953125 Z M 22.972656 13.292969 L 20.671875 12.144531 L 18.375 13.292969 L 18.375 5.25 L 22.972656 5.25 Z M 22.972656 13.292969 " fill-opacity="1" fill-rule="nonzero"/></svg>